<?xml version="1.0" encoding="utf-8"?>
<!-- Generator: Adobe Illustrator 27.3.1, SVG Export Plug-In . SVG Version: 6.00 Build 0)  -->
<svg version="1.1" id="Calque_1" xmlns="http://www.w3.org/2000/svg" xmlns:xlink="http://www.w3.org/1999/xlink" x="0px" y="0px"
	 viewBox="0 0 700.18 596.44" style="enable-background:new 0 0 700.18 596.44;" xml:space="preserve">
<style type="text/css">
	.st0{fill:none;}
	.st1{fill:url(#SVGID_1_);}
	.st2{fill:url(#SVGID_00000175314834460950051890000008360257526149683331_);}
	.st3{fill:url(#SVGID_00000003106392622752022960000004795702332087907973_);}
	.st4{fill:url(#SVGID_00000161629759924355511440000001353993701299776146_);}
	.st5{fill:url(#SVGID_00000011023787123517850830000011635096499113924285_);}
	.st6{fill:url(#SVGID_00000171691173618477864940000010486192685127395230_);}
	.st7{fill:url(#SVGID_00000024706289492415897690000017726529796226048401_);}
	.st8{fill:url(#SVGID_00000050651583493846286220000016051752433262134195_);}
	.st9{fill:url(#SVGID_00000171681181713274539140000005341152241149170879_);}
	.st10{fill:url(#SVGID_00000152950617746094548050000010810425908966652037_);}
	.st11{fill:url(#SVGID_00000080899147045552303920000016418819622919078021_);}
	.st12{fill:url(#SVGID_00000147218833425742535080000011740429462354453643_);}
	.st13{fill:url(#SVGID_00000036213318708312161740000014053196059148664708_);}
	.st14{fill:url(#SVGID_00000163773549985782206700000003517330138911924650_);}
	.st15{fill:url(#SVGID_00000000913314942383273670000006439437525540657069_);}
	.st16{fill:url(#SVGID_00000126305727722975608170000016688517622709997501_);}
	.st17{fill:url(#SVGID_00000168102588325639143040000003322775380590226876_);}
	.st18{fill:url(#SVGID_00000020385600480817028740000002679417370767447458_);}
	.st19{fill:url(#SVGID_00000070802990047704459680000008218985606961022125_);}
	.st20{fill:url(#SVGID_00000051351703910478917170000015194439173237429643_);}
	.st21{fill:url(#SVGID_00000053516629090500268860000004783609284157558426_);}
	.st22{fill:url(#SVGID_00000096052592688640378800000002044750844857482426_);}
	.st23{fill:url(#SVGID_00000094577839667650098130000014689489830896345023_);}
	.st24{fill:url(#SVGID_00000060727974603951309280000000471681196650855306_);}
	.st25{fill:url(#SVGID_00000158713514573116012230000016846018686846536850_);}
	.st26{fill:url(#SVGID_00000121242934086773263940000017186086375346303906_);}
	.st27{fill:url(#SVGID_00000060743254872673662290000013245100750810069157_);}
	.st28{fill:url(#SVGID_00000142162814320663933120000002342616750924049837_);}
	.st29{fill:url(#SVGID_00000096738501885420838800000014960228055728723377_);}
	.st30{fill:url(#SVGID_00000030459797983091461630000017008057122481487540_);}
	.st31{fill:url(#SVGID_00000139994549984422908810000015433158854361234621_);}
	.st32{fill:url(#SVGID_00000121982392064109864820000016654836370134097794_);}
	.st33{fill:url(#SVGID_00000013178489228838320170000011607641437368668049_);}
	.st34{fill:url(#SVGID_00000092441476005011042020000004987145705466258855_);}
	.st35{fill:url(#SVGID_00000173140704332733414140000009629165993929358757_);}
	.st36{fill:url(#SVGID_00000008124037522017212250000011981601631092361111_);}
	.st37{fill:url(#SVGID_00000120529265458238953900000015725585789296712881_);}
	.st38{fill:url(#SVGID_00000049916291134359397410000000601039121391652258_);}
	.st39{fill:url(#SVGID_00000001655165726113811210000011844166718208284046_);}
	.st40{fill:url(#SVGID_00000182512584774253852960000013167721400026191747_);}
	.st41{fill:url(#SVGID_00000099628531969452700770000005397198041496772248_);}
	.st42{fill:url(#SVGID_00000049217549705804222640000006308352549888686237_);}
	.st43{fill:url(#SVGID_00000177463665310373065120000011250207187472114324_);}
	.st44{fill:url(#SVGID_00000010308818723537017510000017221695578652335750_);}
	.st45{fill:url(#SVGID_00000145024185466406854780000001756107639193865651_);}
	.st46{fill:url(#SVGID_00000049904944331284577540000015781854251165532306_);}
	.st47{fill:url(#SVGID_00000125573946521695241060000004328060902907380406_);}
	.st48{fill:url(#SVGID_00000132060874481264114710000000081854759213357478_);}
	.st49{fill:url(#SVGID_00000117638107215188516370000008479611883520430517_);}
	.st50{fill:url(#SVGID_00000151502204496120666060000001076418233893826218_);}
	.st51{fill:url(#SVGID_00000130633589919622264610000017398652024241052843_);}
	.st52{fill:url(#SVGID_00000058586616017914261280000015555072813025416322_);}
	.st53{fill:url(#SVGID_00000021107926358741702860000014855188918606571185_);}
	.st54{fill:url(#SVGID_00000001664094270228998220000016224663908057187993_);}
	.st55{fill:url(#SVGID_00000150820249499631827360000017530462324261909125_);}
	.st56{fill:url(#SVGID_00000103974985549376571170000006063333364359452294_);}
	.st57{fill:url(#SVGID_00000144298767256748952980000011815577717469987970_);}
	.st58{fill:url(#SVGID_00000135672985106344771930000000204124210893411761_);}
	.st59{fill:url(#SVGID_00000009556535345197265980000000808260865944203943_);}
	.st60{fill:url(#SVGID_00000085213917637900058050000003440637708514292366_);}
	.st61{fill:url(#SVGID_00000178186717119374293670000002227341393963957889_);}
	.st62{fill:url(#SVGID_00000075879520232313600290000015311567914772619711_);}
	.st63{fill:url(#SVGID_00000059286608058426977770000017572672237802109875_);}
	.st64{fill:url(#SVGID_00000119798920913531901960000002745031902012460470_);}
	.st65{fill:url(#SVGID_00000011012929020222085370000013352272425886427321_);}
	.st66{fill:url(#SVGID_00000132063629562985989880000001704293101478071229_);}
	.st67{fill:url(#SVGID_00000156585177178845634120000001463693523126552503_);}
	.st68{fill:url(#SVGID_00000047776646878276611550000009354111451051327383_);}
	.st69{fill:url(#SVGID_00000147208756952672378100000014250033180468033437_);}
	.st70{fill:url(#SVGID_00000102539113642479276230000010280727494137407146_);}
	.st71{fill:url(#SVGID_00000129170500658006559570000017572932585929251750_);}
	.st72{fill:url(#SVGID_00000183229096928418435850000008231657028394615708_);}
	.st73{fill:url(#SVGID_00000023982898501181430080000005332276852583087513_);}
	.st74{fill:url(#SVGID_00000181082878911141822420000013511145342565758859_);}
	.st75{fill:url(#SVGID_00000147191118627290003500000012724064710049569193_);}
	.st76{fill:url(#SVGID_00000118382564066292217900000012190815871583154359_);}
	.st77{fill:url(#SVGID_00000029758593141871999810000007919280495696509110_);}
	.st78{fill:url(#SVGID_00000175285085416199241480000017919722241097682328_);}
	.st79{fill:url(#SVGID_00000036953671359062481120000006426137466619764145_);}
	.st80{fill:url(#SVGID_00000080916252780585472790000012614688380721191066_);}
	.st81{fill:url(#SVGID_00000057845806161105695820000011217807474917927048_);}
</style>
<g>
	<path class="st0" d="M349.25,219.62c-34.1,0-68.76,21.24-68.76,62.61V318c0,41.37,34.66,62.61,68.76,62.61
		c37.46,0,67.08-23.47,67.08-62.61v-35.78C416.33,243.09,386.71,219.62,349.25,219.62z"/>
	<linearGradient id="SVGID_1_" gradientUnits="userSpaceOnUse" x1="197.7549" y1="306.0842" x2="1684.6833" y2="306.0842">
		<stop  offset="0.0227" style="stop-color:#C2FBFF"/>
		<stop  offset="0.9746" style="stop-color:#267F96"/>
	</linearGradient>
	<path class="st1" d="M281.43,151.61c-43.96,19.36-80.17,62.71-83.12,131.73h-0.56v26.28c1.12,96.71,65.4,145.34,128.58,150.38
		c3.91,0.55,7.83,0.55,11.74,0.55c33.54,0,68.76-11.18,96.15-36.33c13.98,17.88,26.84,27.39,37.46,27.39h10.62
		c9.5,0,17.33-7.83,17.33-17.33V243.43c-25.94-7.65-53.21-17.7-82.06-30.66C366.23,189.7,320.9,169.82,281.43,151.61z M416.33,318
		c0,39.13-29.63,62.61-67.08,62.61c-34.1,0-68.76-21.24-68.76-62.61v-35.78c0-41.37,34.66-62.61,68.76-62.61
		c37.46,0,67.08,23.47,67.08,62.61V318z"/>
	
		<linearGradient id="SVGID_00000072238825388699115720000003807316671677080748_" gradientUnits="userSpaceOnUse" x1="197.7549" y1="306.0842" x2="1684.6833" y2="306.0842">
		<stop  offset="0.0227" style="stop-color:#C2FBFF"/>
		<stop  offset="0.9746" style="stop-color:#267F96"/>
	</linearGradient>
	<path style="fill:url(#SVGID_00000072238825388699115720000003807316671677080748_);" d="M281.43,151.61
		c-43.96,19.36-80.17,62.71-83.12,131.73h-0.56v26.28c1.12,96.71,65.4,145.34,128.58,150.38c3.91,0.55,7.83,0.55,11.74,0.55
		c33.54,0,68.76-11.18,96.15-36.33c13.98,17.88,26.84,27.39,37.46,27.39h10.62c9.5,0,17.33-7.83,17.33-17.33V243.43
		c-25.94-7.65-53.21-17.7-82.06-30.66C366.23,189.7,320.9,169.82,281.43,151.61z M416.33,318c0,39.13-29.63,62.61-67.08,62.61
		c-34.1,0-68.76-21.24-68.76-62.61v-35.78c0-41.37,34.66-62.61,68.76-62.61c37.46,0,67.08,23.47,67.08,62.61V318z"/>
	
		<linearGradient id="SVGID_00000060727237546244749210000012737984577493869205_" gradientUnits="userSpaceOnUse" x1="197.7549" y1="306.0842" x2="1684.6833" y2="306.0842">
		<stop  offset="0.0227" style="stop-color:#C2FBFF"/>
		<stop  offset="0.9746" style="stop-color:#267F96"/>
	</linearGradient>
	<path style="fill:url(#SVGID_00000060727237546244749210000012737984577493869205_);" d="M281.43,151.61
		c-43.96,19.36-80.17,62.71-83.12,131.73h-0.56v26.28c1.12,96.71,65.4,145.34,128.58,150.38c3.91,0.55,7.83,0.55,11.74,0.55
		c33.54,0,68.76-11.18,96.15-36.33c13.98,17.88,26.84,27.39,37.46,27.39h10.62c9.5,0,17.33-7.83,17.33-17.33V243.43
		c-25.94-7.65-53.21-17.7-82.06-30.66C366.23,189.7,320.9,169.82,281.43,151.61z M416.33,318c0,39.13-29.63,62.61-67.08,62.61
		c-34.1,0-68.76-21.24-68.76-62.61v-35.78c0-41.37,34.66-62.61,68.76-62.61c37.46,0,67.08,23.47,67.08,62.61V318z"/>
	
		<linearGradient id="SVGID_00000006683648414852059710000000561554237720530848_" gradientUnits="userSpaceOnUse" x1="322.4101" y1="587.7651" x2="397.375" y2="-63.8529">
		<stop  offset="0.0393" style="stop-color:#2A2A3A"/>
		<stop  offset="0.444" style="stop-color:#267F96"/>
		<stop  offset="0.5137" style="stop-color:#2C839A"/>
		<stop  offset="0.603" style="stop-color:#3C90A4"/>
		<stop  offset="0.7031" style="stop-color:#56A5B6"/>
		<stop  offset="0.8109" style="stop-color:#7BC2CF"/>
		<stop  offset="0.9238" style="stop-color:#A9E7EE"/>
		<stop  offset="0.9773" style="stop-color:#C2FBFF"/>
	</linearGradient>
	<path style="fill:url(#SVGID_00000006683648414852059710000000561554237720530848_);" d="M281.43,151.61
		c-43.96,19.36-80.17,62.71-83.12,131.73h-0.56v26.28c1.12,96.71,65.4,145.34,128.58,150.38c3.91,0.55,7.83,0.55,11.74,0.55
		c33.54,0,68.76-11.18,96.15-36.33c13.98,17.88,26.84,27.39,37.46,27.39h10.62c9.5,0,17.33-7.83,17.33-17.33V243.43
		c-25.94-7.65-53.21-17.7-82.06-30.66C366.23,189.7,320.9,169.82,281.43,151.61z M416.33,318c0,39.13-29.63,62.61-67.08,62.61
		c-34.1,0-68.76-21.24-68.76-62.61v-35.78c0-41.37,34.66-62.61,68.76-62.61c37.46,0,67.08,23.47,67.08,62.61V318z"/>
	
		<linearGradient id="SVGID_00000085234775676850678130000015457853333701717908_" gradientUnits="userSpaceOnUse" x1="197.7546" y1="191.5914" x2="1684.683" y2="191.5914">
		<stop  offset="0.0227" style="stop-color:#C2FBFF"/>
		<stop  offset="0.9746" style="stop-color:#267F96"/>
	</linearGradient>
	<path style="fill:url(#SVGID_00000085234775676850678130000015457853333701717908_);" d="M479.51,148.61h-12.86
		c-16.77,0-31.31,8.39-40.81,20.69c-29.07-22.36-65.97-31.87-99.51-29.07c-15.2,1.24-30.47,5.03-44.9,11.38
		c39.47,18.2,84.8,38.08,136.14,61.15c28.85,12.96,56.12,23.02,82.06,30.66V169.3C499.63,158.12,490.13,148.61,479.51,148.61z"/>
	
		<linearGradient id="SVGID_00000062905620862958667130000007135036679153338008_" gradientUnits="userSpaceOnUse" x1="197.7546" y1="191.5914" x2="1684.683" y2="191.5914">
		<stop  offset="0.0227" style="stop-color:#C2FBFF"/>
		<stop  offset="0.9746" style="stop-color:#267F96"/>
	</linearGradient>
	<path style="fill:url(#SVGID_00000062905620862958667130000007135036679153338008_);" d="M479.51,148.61h-12.86
		c-16.77,0-31.31,8.39-40.81,20.69c-29.07-22.36-65.97-31.87-99.51-29.07c-15.2,1.24-30.47,5.03-44.9,11.38
		c39.47,18.2,84.8,38.08,136.14,61.15c28.85,12.96,56.12,23.02,82.06,30.66V169.3C499.63,158.12,490.13,148.61,479.51,148.61z"/>
	
		<linearGradient id="SVGID_00000132780478616399480120000009897246343709988226_" gradientUnits="userSpaceOnUse" x1="197.7546" y1="191.5914" x2="1684.683" y2="191.5914">
		<stop  offset="0.0227" style="stop-color:#C2FBFF"/>
		<stop  offset="0.9746" style="stop-color:#267F96"/>
	</linearGradient>
	<path style="fill:url(#SVGID_00000132780478616399480120000009897246343709988226_);" d="M479.51,148.61h-12.86
		c-16.77,0-31.31,8.39-40.81,20.69c-29.07-22.36-65.97-31.87-99.51-29.07c-15.2,1.24-30.47,5.03-44.9,11.38
		c39.47,18.2,84.8,38.08,136.14,61.15c28.85,12.96,56.12,23.02,82.06,30.66V169.3C499.63,158.12,490.13,148.61,479.51,148.61z"/>
	
		<linearGradient id="SVGID_00000110436892254258540330000017944298895160813446_" gradientUnits="userSpaceOnUse" x1="345.3327" y1="590.4022" x2="420.2976" y2="-61.2158">
		<stop  offset="0.0254" style="stop-color:#267F96"/>
		<stop  offset="0.9773" style="stop-color:#C2FBFF"/>
	</linearGradient>
	<path style="fill:url(#SVGID_00000110436892254258540330000017944298895160813446_);" d="M479.51,148.61h-12.86
		c-16.77,0-31.31,8.39-40.81,20.69c-29.07-22.36-65.97-31.87-99.51-29.07c-15.2,1.24-30.47,5.03-44.9,11.38
		c39.47,18.2,84.8,38.08,136.14,61.15c28.85,12.96,56.12,23.02,82.06,30.66V169.3C499.63,158.12,490.13,148.61,479.51,148.61z"/>
	
		<linearGradient id="SVGID_00000071551987294846833660000017873056112076916392_" gradientUnits="userSpaceOnUse" x1="534.4848" y1="794.4396" x2="338.4228" y2="-70.5401">
		<stop  offset="0.0254" style="stop-color:#267F96"/>
		<stop  offset="0.2063" style="stop-color:#298298"/>
		<stop  offset="0.3585" style="stop-color:#348A9F"/>
		<stop  offset="0.5003" style="stop-color:#4598AB"/>
		<stop  offset="0.6358" style="stop-color:#5EABBC"/>
		<stop  offset="0.7669" style="stop-color:#7DC5D1"/>
		<stop  offset="0.8928" style="stop-color:#A4E3EB"/>
		<stop  offset="0.9773" style="stop-color:#C2FBFF"/>
	</linearGradient>
	<path style="fill:url(#SVGID_00000071551987294846833660000017873056112076916392_);" d="M479.51,148.61h-12.86
		c-16.77,0-31.31,8.39-40.81,20.69c-29.07-22.36-65.97-31.87-99.51-29.07c-15.2,1.24-30.47,5.03-44.9,11.38
		c39.47,18.2,84.8,38.08,136.14,61.15c28.85,12.96,56.12,23.02,82.06,30.66V169.3C499.63,158.12,490.13,148.61,479.51,148.61z"/>
</g>
</svg>
